<?xml version="1.0" encoding="UTF-8"?>
<!-- Generator: Adobe Illustrator 19.0.0, SVG Export Plug-In . SVG Version: 6.00 Build 0)  -->
<svg version="1.1" id="Layer_1" xmlns="http://www.w3.org/2000/svg" xmlns:xlink="http://www.w3.org/1999/xlink" x="0px" y="0px" viewBox="0 0 26 19" style="enable-background:new 0 0 26 19;" xml:space="preserve" preserveAspectRatio="xMidYMid meet">
<path fill="#fff" id="Updated_shopping_cart" d="M23.6,3H7.1C6.9,2.1,6.7,1.3,6.5,0.7C6.4,0.3,6.1,0,5.7,0H0.9C0.4,0,0,0.4,0,0.8  c0,0.5,0.3,0.9,0.8,0.9c0,0,0,0,0.1,0H5c2.5,10.8,2.6,11.1,2.6,11.1l0,0c0.2,1.3,1.1,2.5,2.3,3c-0.1,0.3-0.2,0.6-0.2,0.9  c0,1.2,1,2.1,2.2,2.1c1.1,0,2.1-1,2.1-2.1c0-0.1,0-0.3,0-0.4h4.3c0,0.1,0,0.3,0,0.4c0,1.2,0.9,2.2,2.1,2.2c1.2,0,2.2-0.9,2.2-2.1  c0-1.1-0.8-2.1-2-2.2c-0.1,0-0.1,0-0.2,0h-7.8c-2.1,0-2.8-0.7-3.2-1.8l12.3,0h0.1c0.7,0,1.3-0.4,1.4-1.1L25,4.8l0-0.1  c0-0.1,0-0.2,0-0.2C25.1,3.6,24.4,2.9,23.6,3z"/>
</svg>