<?xml version="1.0" encoding="utf-8"?>
<!-- Generator: Adobe Illustrator 18.1.0, SVG Export Plug-In . SVG Version: 6.00 Build 0)  -->
<svg version="1.1" id="Layer_1" xmlns="http://www.w3.org/2000/svg" xmlns:xlink="http://www.w3.org/1999/xlink" x="0px" y="0px"
	 viewBox="0 0 300 300" enable-background="new 0 0 300 300" xml:space="preserve">
<g>
	<path fill="none" d="M124.3,62.8c2.6-0.7,5.2-1.3,7.8-1.8c3.9-17.1,11.2-27.4,18.4-31.6c-0.5-0.5-1-1-1.6-1.5
		c-2.9,0.1-6.2,1.4-9.8,4.3C131.2,38.7,126.8,50.9,124.3,62.8z"/>
	<path fill="#4CA950" d="M179.6,62.3c0.8,4.1,0.4,19.3-7.5,32.3l-1.4,0.6c0,0,4.4-20.7,4.1-34c-7.1-1.5-14.4-2.3-21.9-2.3
		c-2.5,0-5,0.1-7.4,0.3c-3.7,16.4-2.7,36.6-2.7,36.6l-5.2,0.3c-0.5-4.5-0.6-8.7-0.5-12.7c0.8-14.8,3.9-39.4,16.2-49.8
		c0,0,0.1-0.1,0.1-0.1c4.6,9,5.1,23.1,5.1,23.1l7.8-0.3c0.7-7.1-2.5-19.6-9.2-25.3c2.1-1.2,4.1-1.8,5.9-1.9
		c-1.2-0.9-2.6-1.5-4.1-1.7c-2-0.2-4.1,0.1-6.2,1c-1.1-0.4-2.4-0.5-3.6-0.4c0.6,0.4,1.1,0.9,1.6,1.5c-7.2,4.1-14.5,14.4-18.4,31.6
		c-2.6,0.5-5.2,1.1-7.8,1.8c2.4-11.9,6.8-24.1,14.8-30.5c3.6-2.9,6.9-4.2,9.8-4.3c-1.2-0.9-2.6-1.5-4.1-1.7
		c-9.8-1.3-23.5,10.9-28.8,39.2C75,80.3,45.6,119.7,45.6,166c0,34.5,16.3,65.1,41.6,84.7l1.7-152.1l-2.4,150.9
		c-16.7-13.8-19.6-24.2-19.6-24.2l14.4-123.6l7.5-3.8h118L248,214.7c7.6-14.7,11.9-31.2,11.9-48.8C259.9,116,225.7,74.2,179.6,62.3z
		"/>
	<path fill="#C34E5C" d="M152.8,273.1c39.3,0,73.6-21.1,92.2-52.6L99.2,258.8C114.9,267.9,133.2,273.1,152.8,273.1z"/>
	<path fill="#4CA950" d="M66.9,225.3c0,0,2.9,10.4,19.6,24.2l2.4-150.9l-7.5,3.5L66.9,225.3z"/>
	<path opacity="0.32" fill="#3F5588" d="M66.9,225.3c0,0,2.9,10.4,19.6,24.2l2.4-150.9l-7.5,3.5L66.9,225.3z"/>
	<ellipse fill="#4CA950" cx="136" cy="117.1" rx="4.6" ry="6.3"/>
	<path fill="#4CA950" d="M171,114.5c0-3-1.8-5.5-3.9-5.5s-3.9,2.5-3.9,5.5c0,3,1.8,5.5,3.9,5.5S171,117.5,171,114.5z"/>
	<path fill="#4CA950" d="M173,57.5l7.8-0.5c0.7-9.6-5.9-28.7-17.9-27.9C171.7,35.4,173,57.5,173,57.5z"/>
	<path fill="#FFDD8E" d="M102.7,243.2c-8.1,1.2-8.1,6.9-8.1,6.9l144-36.9l-40.3-106C186.7,169.5,106.3,242.7,102.7,243.2z"/>
</g>
</svg>
